<?xml version="1.0" encoding="UTF-8"?>
<svg xmlns="http://www.w3.org/2000/svg" xmlns:xlink="http://www.w3.org/1999/xlink" version="1.1" viewBox="0 0 107.2 106.8">
  <!-- Generator: Adobe Illustrator 29.0.0, SVG Export Plug-In . SVG Version: 2.1.0 Build 186)  -->
  <defs>
    <style>
      .st0, .st1, .st2 {
        stroke-width: 2px;
      }

      .st0, .st1, .st2, .st3 {
        fill: none;
      }

      .st0, .st3 {
        stroke: #000;
      }

      .st4, .st5 {
        fill: #231f20;
      }

      .st5, .st1, .st6, .st7, .st8, .st9, .st10, .st2, .st11 {
        stroke: #231f20;
        stroke-miterlimit: 10;
      }

      .st5, .st8 {
        stroke-width: .2px;
      }

      .st6 {
        fill: url(#radial-gradient);
      }

      .st7 {
        fill: #808285;
      }

      .st8 {
        fill: #f1f2f2;
      }

      .st9 {
        fill: url(#linear-gradient);
      }

      .st10 {
        fill: #58595b;
      }

      .st12 {
        display: none;
      }

      .st2 {
        stroke-linecap: round;
      }

      .st11 {
        fill: #414042;
      }
    </style>
    <linearGradient id="linear-gradient" x1="-1334.4" y1="-808.4" x2="-1320.9" y2="-808.4" gradientTransform="translate(515.3 -1428.8) rotate(-41.7) scale(1 -1)" gradientUnits="userSpaceOnUse">
      <stop offset="0" stop-color="#58595b"/>
      <stop offset="1" stop-color="#d1d3d4"/>
    </linearGradient>
    <radialGradient id="radial-gradient" cx="-1327.1" cy="-817.3" fx="-1327.1" fy="-817.3" r="7.3" gradientTransform="translate(515.3 -1428.8) rotate(-41.7) scale(1 -1)" gradientUnits="userSpaceOnUse">
      <stop offset="0" stop-color="#f1f2f2"/>
      <stop offset="1" stop-color="#a7a9ac"/>
    </radialGradient>
  </defs>
  <g id="Layer_2">
    <g id="Layer_1">
      <g id="Layer_1-2">
        <g id="Layer_1-21" data-name="Layer_1-2">
          <g>
            <g>
              <polygon class="st11" points="59.5 72.4 65.2 70.9 62.7 69.1 60.2 68.2 59.5 72.4"/>
              <path class="st10" d="M34.6,40.2l-.5,4.2c-.2,1.6.3,3,1.2,4.1,0,0,24.8,27.9,24.2,24l.7-4.2-25.6-28"/>
              <path class="st1" d="M78.5,46.8c-8.8,6.5-18.9,6-23.1.8-5.8-7.1-.2-22.4,8-27.1,1.1-.6,5.9-3.4,10.9-1.5,2.1.8,3.4,2.1,4.5,3.1,1.5,1.4,5.9,5.8,5.9,12.5,0,7.4-5.5,11.6-6.1,12.1"/>
              <path class="st1" d="M52.3,64.3c.5,3-7.2,15.2-11.9,18.9-7.9,6.2-16.9-2.9-17.8-4.4-1.1-1.8-5.1-10-2.4-15.9,3.2-6.8,19.4-12.3,20-12.7"/>
              <path class="st7" d="M69.9,63.2l-5.9,5.3c-1.7,1.5-4.3,1.4-5.9-.3l-22.6-25.3c-1.5-1.7-1.4-4.3.3-5.9l5.9-5.3c1.7-1.5,4.3-1.4,5.9.3l.2.2c1.5,1.7,1.5,1.7,1.5,1.7.2.1.6.4.5.6h0l20.3,22.8c.2.2,1.1,1.3-.3,5.9h0Z"/>
              <path class="st9" d="M61.2,67.4l-6.4-7.2c-.7-.8-.9-1.9-.5-2.9l.5-1.3c.7-1.7,2.1-2.9,3.8-3.4l2.1-.6,9.4,5.2-4.3,1.5c-1.6.6-2.8,1.9-3.3,3.5l-1.4,5.1h0Z"/>
              <circle class="st6" cx="68.1" cy="64.2" r="7.3"/>
              <circle class="st8" cx="41.5" cy="40.7" r="2.3"/>
              <ellipse class="st4" cx="39.5" cy="50.1" rx=".9" ry="3.3" transform="translate(-23.3 39) rotate(-41.7)"/>
              <ellipse class="st4" cx="52.3" cy="64.3" rx=".9" ry="3.3" transform="translate(-29.5 51) rotate(-41.7)"/>
            </g>
            <circle class="st5" cx="41.5" cy="40.7" r="1.6"/>
          </g>
        </g>
      </g>
    </g>
  </g>
  <g id="Layer_11" data-name="Layer_1" class="st12">
    <path class="st0" d="M54.5,19.8c-19.8.1-35.8,16.2-35.7,36,.1,19.8,16.2,35.8,36,35.7,19.8-.1,35.8-16.2,35.7-36-.1-19.7-16-35.6-35.7-35.7h-.4Z"/>
    <path class="st3" d="M54.7,19.8v71.7M90.5,55.7H18.8M26.9,33.6c16.6,11.9,38.9,11.9,55.5,0M82.4,77.7c-16.6-11.9-38.9-11.9-55.5,0M51.9,20.7c-19.4,16.4-21.8,45.4-5.5,64.8,1.7,2,3.5,3.8,5.5,5.5M57.4,91c19.4-16.4,21.8-45.4,5.5-64.8-1.7-2-3.5-3.8-5.5-5.5"/>
  </g>
  <g id="Layer_3">
    <g>
      <g>
        <path class="st2" d="M99.2,27.4c10.6,18.3,9.3,42.1-4.9,59.4-18.4,22.3-51.3,25.4-73.6,7.1"/>
        <circle class="st4" cx="99.2" cy="27.5" r="3" transform="translate(-1.1 4.5) rotate(-2.6)"/>
      </g>
      <g>
        <path class="st2" d="M7.7,78.9C-2.6,60.7-1.2,37.2,13,20,31.3-2.3,64.3-5.4,86.5,13"/>
        <path class="st4" d="M10.3,77.3c.8,1.4.4,3.3-1.1,4.1-1.4.8-3.3.4-4.1-1.1-.8-1.4-.4-3.3,1.1-4.1,1.4-.8,3.3-.4,4.1,1.1Z"/>
      </g>
    </g>
  </g>
</svg>